<svg width="48" height="48" viewBox="0 0 48 48" fill="none" xmlns="http://www.w3.org/2000/svg">
<path d="M16.0918 32.9646V12.2446L18.5718 13.0446V33.7646L17.2918 32.0846L16.0918 32.9646Z" fill="black"/>
<path d="M16.0918 10.0039V11.6846L18.5718 12.4839V10.7246L16.0918 10.0039Z" fill="black"/>
<path d="M11.291 36.5622V32.8022L13.211 32.3222V33.4422L21.851 36.6422C26.251 38.5622 28.091 37.4422 27.931 33.2822C27.7976 29.814 25.6643 27.8955 24.411 27.2822L20.571 25.7622V22.2422L27.771 24.7222L32.171 23.7622L34.011 23.4022L35.851 23.0422C37.2643 26.3222 39.243 34.2422 35.851 39.6822L31.611 40.4822L24.971 41.6022L11.291 36.5622Z" fill="black"/>
<path d="M14.329 19.0423V23.1223C13.849 22.7223 10.649 20.0023 10.409 13.6023C10.217 8.48234 13.2853 6.40219 14.329 6.40234C15.3727 6.4025 34.7309 14.1623 34.7309 14.1623L29.449 15.1223L19.049 11.2823V10.3223L15.369 9.20234V10.4023H14.569C13.929 10.7223 12.649 11.9223 12.649 14.1623C12.649 16.4023 13.769 18.349 14.329 19.0423Z" fill="black"/>
</svg>
